<svg id="Layer_1" data-name="Layer 1" xmlns="http://www.w3.org/2000/svg" viewBox="0 0 250 50"><defs><style>.cls-1{fill:#010101;}</style></defs><path class="cls-1" d="M125.81,1.33c0,.46,0,.92,0,1.39V1.33l-.25,0-.2,0h0c-6.42.92-8.88,5.77-8.89,12.16V36.23c0,6.41,2.48,11.31,8.89,12.37l.29,0,.21,0V42l-.45,0c-2.13-.25-3.17-1.85-3.17-4.83V12.74c0-3,1-4.54,3.12-4.76h0a3.46,3.46,0,0,1,.45,0V5.26c0,.91,0,1.82,0,2.71,1.69.37,2.52,1.94,2.52,4.72V37.27c0,2.78-.83,4.38-2.52,4.83v6.57l.11,0c5.84-1.43,7.7-6.38,7.74-12.41V13.48a15.2,15.2,0,0,0-2-8.38A8.57,8.57,0,0,0,125.81,1.33Z"/><polygon class="cls-1" points="147.21 4.93 141.56 22.04 141.56 4.12 136.86 3.44 136.86 46.13 141.56 45.24 141.56 32.61 142.94 28.78 147.1 44.2 151.2 43.42 145.58 22.43 151.2 5.51 147.21 4.93"/><polygon class="cls-1" points="160.72 6.88 158.19 22.73 155.53 6.13 151.68 5.58 156.31 30.46 156.31 42.46 159.71 41.82 159.71 30.19 163.71 7.31 160.72 6.88"/><path class="cls-1" d="M90.57,18.63c-.79-1.52-1.06-4.85-.3-6.36a1.46,1.46,0,0,1,2.61-.19c.49.68.46,2.86.45,4l3.37-.21c0-4.34-.38-9.72-5.23-9.47-4.27.52-5,4.74-5.09,9A15.1,15.1,0,0,0,88.19,23c1,1.87,3.42,4.77,4.22,6.67.93,1.66,1.42,7.29-1.07,7.19-2.21.1-1.76-3.87-1.8-5.78l-3.25.08v2.1a12.69,12.69,0,0,0,1.3,6.36,4.48,4.48,0,0,0,7.77,0A12.88,12.88,0,0,0,96.73,33c0-4.38-1.38-7.41-3.92-10.78A20.9,20.9,0,0,1,90.57,18.63Z"/><polygon class="cls-1" points="99.36 10.87 104.11 10.44 104.11 44.81 108.97 45.56 108.97 9.99 114.44 9.5 114.44 3.35 99.36 5.34 99.36 10.87"/></svg>