<svg id="Layer_1" data-name="Layer 1" xmlns="http://www.w3.org/2000/svg" viewBox="0 0 400 100"><defs><style>.cls-1{fill:#010101;}</style></defs><path class="cls-1" d="M201.61,3c0,.91-.05,1.84-.06,2.77V3l-.5.06-.39,0-.11,0c-12.75,1.83-17.64,11.46-17.66,24.16V72.32c0,12.73,4.94,22.46,17.66,24.56.19,0,.4.05.59.08l.41.06V83.85c-.29,0-.59,0-.89-.06-4.23-.49-6.3-3.68-6.3-9.59V25.64c0-5.86,2-9,6.19-9.44h.11a6.7,6.7,0,0,1,.89,0V10.8c0,1.8,0,3.6,0,5.37,3.36.74,5,3.85,5,9.37V74.37c0,5.52-1.65,8.71-5,9.6V97l.23,0c11.6-2.83,15.28-12.67,15.37-24.66V27.12c0-7-1.33-12.48-4-16.65A17,17,0,0,0,201.61,3Z"/><polygon class="cls-1" points="244.12 10.14 232.89 44.11 232.89 8.53 223.56 7.18 223.56 91.97 232.89 90.21 232.89 65.12 235.64 57.5 243.9 88.13 252.04 86.6 240.88 44.9 252.04 11.28 244.12 10.14"/><polygon class="cls-1" points="270.95 14 265.93 45.5 260.66 12.52 253 11.41 262.19 60.84 262.19 84.69 268.94 83.41 268.94 60.31 276.9 14.85 270.95 14"/><path class="cls-1" d="M131.6,37.35c-1.57-3-2.1-9.64-.6-12.65,1-2.14,4.06-2.54,5.19-.36,1,1.34.93,5.68.89,8l6.7-.41c.07-8.62-.75-19.31-10.38-18.8-8.48,1-10,9.4-10.12,17.93a29.87,29.87,0,0,0,3.6,14.91c2,3.72,6.78,9.49,8.39,13.26,1.84,3.29,2.81,14.49-2.13,14.29-4.4.19-3.51-7.69-3.58-11.5l-6.46.16v4.17q0,8.24,2.59,12.64c3.18,6,12.24,5.91,15.44,0q2.72-4.53,2.71-13c.08-8.7-2.74-14.72-7.77-21.43A42.08,42.08,0,0,1,131.6,37.35Z"/><polygon class="cls-1" points="149.06 21.93 158.49 21.07 158.49 89.35 168.17 90.84 168.17 20.19 179.02 19.2 179.02 6.99 149.06 10.94 149.06 21.93"/></svg>