<svg id="Layer_1" data-name="Layer 1" xmlns="http://www.w3.org/2000/svg" viewBox="0 0 512 512"><defs><style>.cls-1{fill:#fff;}</style></defs><path d="M115.47,311.67V289.45H90.91c-3.09,0-6.19.14-9.26-.09-4.3-.32-6.61-2.81-6.71-7.13-.12-4.78,0-9.56,0-14.33V105.21c0-7.88,1.77-9.68,9.63-9.7s15.73.06,23.59-.07c1.19,0,3.18-.66,3.43-1.45,2.51-7.88,8.2-10.55,16.44-9.92,0-2.36-.06-4.41,0-6.47.16-4.65,2.42-7.08,7-7.11q18.53-.13,37.07,0c4.55,0,6.83,2.46,7,7.12.1,2,0,3.9,0,6.11,1.31.12,2.38.29,3.45.31,6,.09,10.32,2.93,12.26,8.5.92,2.64,2.24,3,4.57,3q12-.12,24,0c6.67,0,8.78,2.2,8.79,8.89q0,42.36,0,84.72v5.42c1.78.08,3.27.21,4.75.21,23.31-.06,46.61-.18,69.92-.18q40.23,0,80.46.2c6.88,0,8.92,2.14,8.92,9.23q0,51,0,102v5.71h33.77q12.23,0,24.44,0c6.39,0,8.69,2.24,8.69,8.53q0,56.49,0,113c0,6.12-2.22,8.29-8.43,8.3q-65.92,0-131.86.06l-264.16-.05H57.07c-6.13-.08-8.27-2.22-8.27-8.46q0-55.43,0-110.85c0-.84,0-1.68,0-2.53.11-5.55,2.45-7.94,8-7.95q27-.08,53.92-.07Zm80.37-203c0,3.71.12,7.19,0,10.67-.21,5.06-2.64,7.49-7.66,7.5q-34.54.07-69.09,0c-5.24,0-7.68-2.51-7.8-7.79-.09-3.45,0-6.9,0-10.37H88.39V276H218.74V108.7ZM62.16,428.34H182.39v-103H146.26c0,9,.05,17.65,0,26.33,0,5.21-2.43,7.9-7.17,7.94q-16.83.14-33.68,0c-4.58,0-6.87-2.47-7-7.11-.09-3.51,0-7,0-10.54V325.17H62.16Zm267.31.07H449.72V325.21H413.61c0,8.6,0,16.87,0,25.13,0,7.41-1.83,9.27-9.1,9.28h-26.1c-11.85,0-12.67-.82-12.67-12.59V325.35H329.47Zm17.41-220.34c0,9.31.06,18.15,0,27,0,5-2.29,7.51-7,7.57q-17.05.18-34.1,0c-4.4-.06-6.62-2.51-6.7-6.93-.09-4.91,0-9.82,0-14.74V208.21H263V311.34H383V208.07Zm-67,117.11v4.68c0,7.31.08,14.61,0,21.91-.09,5.63-2.4,7.82-8.06,7.84-10.81,0-21.63.05-32.44,0-4.66,0-6.95-2.28-7.25-6.9-.13-1.82-.06-3.65-.06-5.48v-22h-35.8V428.42H315.72V325.18ZM249,311.52V208.16H232.24V213q0,33.28,0,66.56c0,8-1.94,9.88-10,9.88H129v22.07Zm-66.48-198v-16l-.89-.81c-.84.77-2.17,1.4-2.42,2.33-1.62,6.06-2.68,7-9,7.06-11,0-21.91,0-32.86,0-7.32,0-8.73-1.28-9.83-9.4-1.19.69-3,1.22-3,1.83-.23,5-.13,10-.13,15Zm150.94,94.71H312.25v21.31h21.24ZM132.84,325.31h-21.3v21h21.3Zm112.51-.09V346.3h21.37V325.22Zm155,21V325.33h-21.2v20.93ZM141.44,83.52V93h24.25V83.52Z"/><path d="M170.92,228.11c-8.55,0-17.11,0-25.67,0-4.74,0-7.75-2.58-7.78-6.44s3-6.59,7.68-6.61q25.89-.13,51.78,0c4.69,0,7.66,2.91,7.54,6.73s-3.06,6.3-7.87,6.32C188,228.14,179.48,228.11,170.92,228.11Z"/><path d="M171.3,180.2c8.42,0,16.84,0,25.26,0,4.81,0,7.77,2.46,7.91,6.33s-3,6.76-7.92,6.77q-25.47.09-50.94,0c-5,0-8.14-2.64-8.14-6.58s3.14-6.51,8.16-6.53C154.18,180.17,162.74,180.2,171.3,180.2Z"/><path d="M170.9,158.3c-8.55,0-17.11,0-25.66,0-4.84,0-7.76-2.5-7.78-6.37s2.91-6.42,7.72-6.43q25.88,0,51.75,0c4.72,0,7.66,2.67,7.54,6.57-.11,3.72-3,6.18-7.48,6.21C188.29,158.35,179.6,158.3,170.9,158.3Z"/><path d="M170.84,262.92c-8.41,0-16.83,0-25.24,0-5.14,0-8.16-2.52-8.14-6.48s3-6.39,8.2-6.39q25.46,0,50.91,0c4.89,0,7.78,2.37,7.9,6.24s-2.92,6.59-8,6.63C188,263,179.4,262.92,170.84,262.92Z"/><path d="M131.25,213.33c-1.24,2.25-1.88,4.15-3.12,5.51-3,3.33-6.22,6.48-9.49,9.56s-6.6,3.16-10,0A38,38,0,0,1,104,223.5c-1.9-2.52-2.13-5.67.25-7.63a9.54,9.54,0,0,1,7-2c2.27.43,3.53.28,5-1.35,1.29-1.47,2.6-3.32,4.29-3.94,2-.75,4.74-1.07,6.62-.29C128.8,209,129.79,211.46,131.25,213.33Z"/><path d="M114.67,180.17a59.33,59.33,0,0,1,5-5.87c2.75-2.54,5.85-2.55,8.7-.05a6.14,6.14,0,0,1,.38,9c-3.39,3.72-7,7.29-10.68,10.72-2.9,2.68-6.09,2.57-9-.09-1.46-1.32-2.82-2.74-4.18-4.16-2.42-2.51-3.13-5.4-1.08-8.37s5-3.76,8.47-2.13C112.75,179.47,113.26,179.63,114.67,180.17Z"/><path d="M114.43,160.9c-4.74,0-11.63-6.7-11.74-10.71a6.16,6.16,0,0,1,8.24-6.17c2.83,1.07,4.08,0,5.67-1.68a23.71,23.71,0,0,1,3.67-3.42c2.9-1.94,5.91-1.82,8.37.72s2.74,5.74.43,8.35c-3.6,4.08-7.57,7.85-11.54,11.58C116.6,160.44,115,160.65,114.43,160.9Z"/><path d="M130.46,247.33c-.12,5.3-12.61,17.94-16.47,18.11-4.15.19-11.25-6.59-11.3-10.81a6.22,6.22,0,0,1,8.36-6.07c2.52.9,3.82.26,5.34-1.43,1.2-1.35,2.42-3.08,4-3.62,2.06-.71,4.79-1.16,6.62-.35S129.81,246.48,130.46,247.33Z"/><path d="M310.64,88.65c-2-4.32-4.13-8.94-6.29-13.55-.6-1.28-1.07-2.52,0-3.74s2.5-.92,3.87-.39c2.25.86,4.49,1.73,6.78,2.47a2.05,2.05,0,0,0,1.69-.37c4-3.58,7.57-3.56,11.36.23a1.63,1.63,0,0,0,2.06.38c2.45-.94,4.94-1.79,7.41-2.7,1.36-.51,2.72-.92,3.87.39s.62,2.47,0,3.75c-2.16,4.61-4.28,9.24-6.49,14,2.19,1.34,2.5,3.49,2.34,5.82-.13,1.89-.31,3.79-.29,5.68a2.6,2.6,0,0,0,1,1.57,136.7,136.7,0,0,1,20.64,23.45c5,7.32,9.05,15.07,10.76,23.88,3.38,17.41-4.57,31.32-21.32,37.1-10.67,3.67-21.68,4.49-32.86,3.53-7.8-.66-15.39-2.21-22.49-5.7-12.2-6-18.6-18.3-16.79-31.77,1.49-11.13,6.62-20.59,13-29.5a136,136,0,0,1,19-21.07,2.29,2.29,0,0,0,.79-2.26,40.52,40.52,0,0,1,0-7.55C308.86,91.17,309.85,90.11,310.64,88.65ZM323,185.18a71.17,71.17,0,0,0,23.95-3.82c11.47-4.12,19.15-13.18,17.78-27.7a41.84,41.84,0,0,0-4.07-14.13c-6.73-14.1-17.1-25.29-28.63-35.54a2.46,2.46,0,0,0-1.51-.49c-5,0-10,0-15,0a3.26,3.26,0,0,0-1.93.75,135.53,135.53,0,0,0-20.13,21.67c-5.5,7.52-10.16,15.49-11.86,24.8-2.31,12.66,2,24.11,15.26,29.77C305.15,184.06,314,185.12,323,185.18ZM334.37,77.81c-1.33.46-2.34.75-3.3,1.16-2.51,1.07-4.57.4-6.35-1.52-2.05-2.19-2.55-2.21-4.73,0a5.14,5.14,0,0,1-6.11,1.3c-.67-.28-1.36-.48-2.36-.82,1.65,3.57,3.09,6.78,4.63,9.94a1.85,1.85,0,0,0,1.37.82c3.59.06,7.17.07,10.76,0a2,2,0,0,0,1.47-.94C331.3,84.55,332.74,81.34,334.37,77.81Zm-2.48,16.34H314V98h17.86Z"/><path class="cls-1" d="M318.79,158.91a4.63,4.63,0,0,1,0,.65c-.09.94-.14,1.9-.32,2.83-.28,1.43.4,1.91,1.7,2,1.82.14,2.45-.25,2.59-1.72.13-1.27.26-2.54.37-3.59a40.85,40.85,0,0,0,4.79-1.56,7.77,7.77,0,0,0,4.78-7.47,7.3,7.3,0,0,0-4.59-7.18c-1.16-.55-2.37-1-3.54-1.52a38.68,38.68,0,0,1-3.61-1.74,2.47,2.47,0,0,1-1.16-3.19,4.07,4.07,0,0,1,2.18-2c2.29-.8,4.51,0,6.67.84.63.26,1.3.45,2.4.83-.11-1.75.32-3.55-.4-4.37-1-1.18-2.87-1.63-4.52-2.47.1-.78.2-1.78.34-2.78.18-1.24-.07-2-1.58-2.1-2.24-.07-2.61.12-2.74,1.9,0,.4,0,.79-.06,1.18-.07,1.37-.4,2.21-2.1,2.55-3.81.75-6,3.25-6.34,6.65-.41,4,1.06,6.58,4.77,8.39,1.11.53,2.3.89,3.41,1.42a18.34,18.34,0,0,1,3.65,2,2.78,2.78,0,0,1-.13,4.5,6.52,6.52,0,0,1-2.92,1.06,12,12,0,0,1-7.43-1.6c-.43-.24-1.44-.21-1.66.09-1,1.39-.17,4.34,1.42,5C316.08,158.08,317.42,158.45,318.79,158.91Z"/><path d="M318.79,158.91c-1.37-.46-2.71-.83-4-1.37-1.59-.68-2.45-3.63-1.42-5,.22-.3,1.23-.33,1.66-.09a12,12,0,0,0,7.43,1.6,6.52,6.52,0,0,0,2.92-1.06,2.78,2.78,0,0,0,.13-4.5,18.34,18.34,0,0,0-3.65-2c-1.11-.53-2.3-.89-3.41-1.42-3.71-1.81-5.18-4.43-4.77-8.39.35-3.4,2.53-5.9,6.34-6.65,1.7-.34,2-1.18,2.1-2.55,0-.39,0-.78.06-1.18.13-1.78.5-2,2.74-1.9,1.51,0,1.76.86,1.58,2.1-.14,1-.24,2-.34,2.78,1.65.84,3.5,1.29,4.52,2.47.72.82.29,2.62.4,4.37-1.1-.38-1.77-.57-2.4-.83-2.16-.88-4.38-1.64-6.67-.84a4.07,4.07,0,0,0-2.18,2,2.47,2.47,0,0,0,1.16,3.19,38.68,38.68,0,0,0,3.61,1.74c1.17.53,2.38,1,3.54,1.52a7.3,7.3,0,0,1,4.59,7.18,7.77,7.77,0,0,1-4.78,7.47,40.85,40.85,0,0,1-4.79,1.56c-.11,1-.24,2.32-.37,3.59-.14,1.47-.77,1.86-2.59,1.72-1.3-.1-2-.58-1.7-2,.18-.93.23-1.89.32-2.83A4.63,4.63,0,0,0,318.79,158.91Z"/></svg>