<svg id="Layer_1" data-name="Layer 1" xmlns="http://www.w3.org/2000/svg" viewBox="0 0 512 512"><path d="M122.14,427.94c-4.43-1.76-9.17-3-13.23-5.37C97.16,415.66,91.24,405,90.32,391.46c-.07-1,0-2,0-3q0-141.4,0-282.81c0-19.28,11.44-34.18,29.62-38.44a48,48,0,0,1,10.3-1.07c10.9-.14,21.8-.11,32.7,0,2.29,0,3.39-.56,4.25-2.91,3.68-10,12.44-15.86,23.2-15.86H291.8c10.78,0,19.46,5.82,23.17,15.87.87,2.36,2,2.92,4.26,2.9,11.27-.09,22.55-.15,33.82,0,18.75.23,33.34,11.55,37.62,29.26a45.9,45.9,0,0,1,1.14,10.65q.09,141,.05,282.06c0,20.32-11.17,34.41-31,39.21a3.1,3.1,0,0,0-.88.61ZM120.63,247q0,70.78,0,141.56c0,6.38,2.62,9.06,9,9.06H352.55c6.32,0,8.94-2.7,8.94-9.09q0-141.39,0-282.76c0-6.4-2.87-9.3-9.28-9.32-11.27,0-22.54,0-33.81,0-1.92,0-3,.37-3.91,2.36-4.56,9.83-12.45,14.72-23.29,14.73q-50.34,0-100.69,0c-10.52,0-18.24-4.91-22.72-14.42-1.07-2.25-2.28-2.68-4.47-2.66-10.9.09-21.8,0-32.69,0-7.4,0-10,2.63-10,10.1Q120.63,176.77,120.63,247ZM165.26,78.48c-13.21,0-25.95,0-38.7,0a17.7,17.7,0,0,0-4,.47c-12.79,3.06-20,13-20,27.45q0,140.65,0,281.31a36.37,36.37,0,0,0,.72,8.48c2.92,12.16,13.07,19.81,26.2,19.83q59.45.06,118.91,0h104c9.25,0,16.89-3.29,22.48-10.83,3.87-5.21,4.83-11.19,4.83-17.53q-.07-73.4,0-146.79c0-45-.22-89.93.11-134.89.13-16.77-12.53-28.42-27.59-27.7-9.27.45-18.57.09-27.86.09h-7.4v6.15c12,0,23.73.44,35.45-.13,11-.54,21.23,8.16,21.21,21q-.33,141.59,0,283.17c0,11.51-8,21.33-21.43,21.31q-111.12-.17-222.22-.1a26.76,26.76,0,0,1-7.67-1.06c-8.89-2.69-13.58-9.92-13.58-20.57q0-137.49,0-275c0-3.22,0-6.45,0-9.66.31-11,8.57-19,19.61-19s22.05,0,33.07,0h3.87ZM241,59.27c-16.71,0-33.41,0-50.12,0-8,0-13.07,5-13.18,12.85-.07,5,0,9.9,0,14.85,0,10,4.54,14.47,14.52,14.48q29.72,0,59.41,0c13.12,0,26.24.06,39.36,0,8.35,0,13.28-4.91,13.37-13,.06-5,0-9.91,0-14.86,0-9.61-4.73-14.3-14.35-14.31Q265.55,59.26,241,59.27Z"/><path d="M241.46,202.19H328c6.28,0,9.14,1.94,9.12,6.16s-2.88,6.12-9.17,6.12H153c-5.26-.05-8-2.18-8-6.17s2.75-6.1,8.05-6.1Q197.27,202.17,241.46,202.19Z"/><path d="M241.05,330.67q-44.38,0-88.76,0c-4.68,0-7.08-1.91-7.26-5.58a5.83,5.83,0,0,1,5.07-6.28,24.11,24.11,0,0,1,3.71-.1H328.35a24.11,24.11,0,0,1,3.71.1,5.76,5.76,0,0,1,5,6.31c-.26,3.28-2.09,5.19-5.41,5.49-1.23.12-2.48.07-3.71.07Z"/><path d="M227.68,241.13h73.19c1.36,0,2.73,0,4.08.09,3.37.33,5.67,2.63,5.81,5.68a6.33,6.33,0,0,1-5.69,6.26,31,31,0,0,1-3.34.05H153.85a24.11,24.11,0,0,1-3.71-.1,5.83,5.83,0,0,1-5.09-6.28c.22-3.29,2.06-5.2,5.35-5.58a37,37,0,0,1,4.08-.12Z"/><path d="M221.39,291.91q-34.72,0-69.45,0c-4.69,0-7.32-2.6-6.85-6.69a5.43,5.43,0,0,1,5-5.13,24.11,24.11,0,0,1,3.71-.09H289.33a30.55,30.55,0,0,1,3.71.08,6,6,0,0,1,5.17,5.86,6.12,6.12,0,0,1-5.16,5.91,24.62,24.62,0,0,1-3.33.07Z"/><path d="M212.08,163.42q30.09,0,60.18,0c4.6,0,7.17,1.94,7.46,5.49a5.67,5.67,0,0,1-4.82,6.4,26.29,26.29,0,0,1-4.44.27H154.19a26.31,26.31,0,0,1-4.07-.22,5.43,5.43,0,0,1-5.06-5.46c-.21-3.32,1.51-5.41,4.64-6.25a14.5,14.5,0,0,1,3.68-.23Z"/></svg>