<svg id="Layer_1" data-name="Layer 1" xmlns="http://www.w3.org/2000/svg" viewBox="0 0 512 512"><path d="M240.7,286.4a62.2,62.2,0,0,1-91.87.58c-5.94,4.3-11.46,9.29-17.82,12.74-36.94,20-82.92-3.05-89.62-44.6A35.89,35.89,0,0,1,43.5,235c9.45-23,18.6-46.19,27.87-69.29,4-10,8.08-12.76,18.9-12.76H298.84c10.8,0,14.87,2.76,18.89,12.78Q332,201.32,346.26,236.9c4.72,11.82,1.52,23.12-3.38,33.81-18.13,39.5-68.49,48.57-99.52,18.16C242.57,288.1,241.75,287.37,240.7,286.4Zm46-10.37c13.4.13,26.51-9.48,29.65-22.31a17,17,0,0,0-.65-9.57c-7.3-18.93-15-37.7-22.44-56.57-1.06-2.69-2.29-4-5.48-3.94q-93.27.17-186.56,0c-2.89,0-4.1.95-5.14,3.58C88.42,206.54,80.57,225.77,72.85,245a10.21,10.21,0,0,0-.93,4.55c1.52,15.65,17.77,28.33,33.45,26.22,15.87-2.13,26.43-13.7,27.55-30.19.64-9.46,6.69-15.63,15.36-15.67s14.61,5.91,15.44,15c.13,1.44.42,2.86.62,4.28,2.24,15.32,14.66,26.5,29.76,26.76s28-10.81,30.59-26.38c.44-2.68.37-5.46,1-8.07A15.33,15.33,0,0,1,242.3,230,15,15,0,0,1,256,244.29C257,265.86,272.89,275.79,286.68,276Z"/><path d="M194.43,491.4H117.05c-24.73,0-45.47-20.29-45.62-45-.17-30.91-.08-61.83,0-92.74,0-9.37,6.56-16.06,15.42-16.06s15.3,6.69,15.31,16.09q0,43.72,0,87.46c0,14,5.42,19.46,19.43,19.46H269.12q17.64,0,17.67-17.74,0-44.68,0-89.37c0-6.94,3.66-12.45,9.5-14.79,6-2.41,13.13-1.21,17.05,3.84,2.11,2.73,4,6.53,4,9.86.29,32,.38,64.07.09,96.11-.19,22.21-21.43,42.76-43.73,42.83C247.3,491.46,220.87,491.4,194.43,491.4Z"/><path d="M317.66,60.66H422c10.77,0,14.83,2.78,18.86,12.82,8.82,21.94,17.16,44.08,26.61,65.74,5.36,12.29,4.52,23.86.05,35.75a61.12,61.12,0,0,1-57.59,39.52c-8.56-.1-15.07-6.23-15.38-14.5a15.22,15.22,0,0,1,14.81-16.18c14.16-.76,24.21-7.24,29.51-20.62a14.8,14.8,0,0,0,0-11.92c-7.72-18.58-15.15-37.29-22.49-56-1.2-3.06-2.78-3.92-6-3.91q-92.78.15-185.55,0c-3.29,0-4.76,1-5.84,4-2.14,6-4.52,12-7.18,17.76a15.32,15.32,0,0,1-29.28-4.57,22.06,22.06,0,0,1,1.64-9.29c3.34-9,7-17.82,10.62-26.7s8.12-11.87,17.62-11.87Q265,60.64,317.66,60.66Z"/><path d="M440.65,309.07q0,22.11,0,44.22A45.62,45.62,0,0,1,395,399.09c-10.42,0-20.83,0-31.25,0-8.75,0-15.25-6.45-15.35-15a15.11,15.11,0,0,1,14.87-15.63c9.28-.25,18.58-.09,27.88-.1,13.36,0,18.78-5.49,18.78-19,0-29.32-.05-58.64,0-88,0-11.66,10.54-19,21.1-15a15,15,0,0,1,9.61,14.17C440.68,276.7,440.65,292.88,440.65,309.07Z"/></svg>