<svg id="Layer_1" data-name="Layer 1" xmlns="http://www.w3.org/2000/svg" viewBox="0 0 512 512"><path d="M18.5,296c.86-4.36,1.6-8.75,2.6-13.08q12.7-55.52,63.32-81.64c.68-.36,1.33-.77,2.31-1.33-.78-1-1.42-2-2.19-2.88C47.65,155.31,68.3,91.53,122.81,79.45c17.74-3.94,34.66-.65,50.44,8.31,4.58,2.61,6,6.89,3.84,10.94s-6.48,5.57-11.11,3.21c-7.48-3.81-15.11-6.73-23.59-7.56a55.19,55.19,0,0,0-58.95,42.2c-9.43,40.17,26.45,75.63,67.12,66.33,6.05-1.39,10.11.21,11.58,4.56a7.88,7.88,0,0,1-5.72,10.46c-16.54,4.35-32.79,3.51-48.26-4-4.32-2.09-7.73-2.41-12-.37-36.54,17.29-57.56,45.76-60.95,86.14-1.3,15.47-.21,31.13-.21,47h71.21c7.72-55.41,36.88-95.56,87.24-120.81-19.54-21.63-28.13-46.77-23.23-75.76a83.75,83.75,0,0,1,31-52.7c34.86-28,82.43-25.76,115.39,5.05,28.61,26.74,40.83,81.71,2.2,123.45q74.92,37.52,87,120.76h71.13c0-16.31,1.31-32.6-.25-48.62C472.7,257.57,451,229.35,414,212.67c-3-1.34-5.36-1-8.25.4a68.33,68.33,0,0,1-47.67,5.4c-6.87-1.64-9.66-5.06-8.43-10.31,1.15-4.87,5.34-6.67,11.94-5.25,14.46,3.12,28.21,1.41,41.11-6.1,20-11.66,31-35.67,26.36-57.73-5.1-24.34-23.71-41.68-47.68-44.61a55,55,0,0,0-32.25,5.9c-7.43,3.77-11.8,3.22-14.33-1.85-2.39-4.81-.24-8.61,7-12.32,42.86-22.1,94.53,2.87,103.11,50.09,4.08,22.47-1.85,42.49-16.64,59.88-1,1.16-2,2.3-3.27,3.76,12.11,5.92,23,13.07,32.4,22.35,23.41,23.12,35.58,51.12,36.05,84,.22,15.46.05,30.92,0,46.38,0,7.63-2.56,10.24-10.3,10.25q-35.24.06-70.49,0h-6c-.09,1.92-.24,3.55-.24,5.17,0,18.56,0,37.11,0,55.66,0,7.94-2.54,10.39-10.59,10.39H116.1c-8,0-10.49-2.47-10.51-10.47q0-27.6,0-55.19V363h-5.43c-23.34,0-46.68-.08-70,.06-4.75,0-8.79-.76-11.62-4.89Zm372,122.16c0-9.95.13-19.51,0-29.07-.25-14.21.69-28.61-1.31-42.58-7.26-50.53-34.58-86.41-81.28-107.41a6.67,6.67,0,0,0-7.18.49,85.17,85.17,0,0,1-89.17.13c-2.62-1.64-4.75-1.68-7.63-.44a133.67,133.67,0,0,0-41.18,27c-24,23.46-38.23,51.89-40.31,85.48-1.32,21.25-.69,42.63-.92,64a24,24,0,0,0,.22,2.4ZM256,236.07a71.21,71.21,0,0,0,71.19-70.85c.23-38.79-31.78-71-70.92-71.36-38.84-.37-71.57,32.3-71.43,71.31A71.22,71.22,0,0,0,256,236.07Z"/></svg>